<svg width="3543" height="439" viewBox="0 0 3543 439" fill="none" xmlns="http://www.w3.org/2000/svg">
<path d="M90.4233 90L0 6V436L3495.04 428.5L3539 408L3525.01 382V338V308L3495.04 292.5L3441.08 308C3429.43 312.167 3405.21 321.8 3401.62 327C3398.02 332.2 3380.13 336.5 3371.64 338L3325.18 351.5L3289.71 359L3218.27 327L3195.29 320.5H3134.84L3086.38 308L3022.94 314.5L2990.47 338L2964.49 351.5L2939.01 308L2911.03 247L2843.09 162.5L2792.63 200L2778.15 225L2751.17 233L2719.69 241.5H2690.72L2653.25 247L2629.27 267.5L2610.79 308L2590.8 327L2545.34 308L2525.86 287.5V263.5L2521.36 247L2484.39 200L2452.92 181.5L2413.45 173L2386.48 162.5L2355.5 155.5L2326.53 173L2296.05 210.5L2274.57 233L2243.6 247L2227.61 267.5L2214.12 298.5L2206.13 334V370.5L2214.12 394.5V418.5L2166.66 413.5L2206.13 241.5L2199.64 219.5L2149.68 173L2078.24 200L2033.78 225L1990.31 241.5L1965.33 254L1930.86 259L1874.91 254L1842.44 259L1819.96 272.5L1789.48 282L1764 291.5L1743.02 322.5L1703.56 353L1691.07 381L1672.58 404.5L1616.13 394.5L1568.67 381L1541.69 370.5L1519.71 381L1492.73 404.5H1458.76H1422.29L1379.5 394.5L1356.5 381L1324 357.5L1302.5 299L1297.5 267.5L1246.94 248L1195.99 206L1128.54 166L1099.57 159.5L1061.1 135.5L1016.64 125L965.681 119L885.749 90L861.769 97L809.814 125L755.859 135.5L695.91 166C686.418 173.5 666.835 189.3 664.437 192.5C661.439 196.5 634.462 232 631.465 236.5C629.067 240.1 616.477 262 610.482 272.5V325.5V361L618.975 399.5V421.5L591.998 424.5L551.532 421.5L528.552 399.5L519.06 372.5V347.5C522.224 342 528.552 329.9 528.552 325.5V285V248C528.552 238 539.043 210.5 539.043 206V166V125L528.552 97L519.06 79.5L494.081 58.5L466.105 70L423.641 84.5L376.181 103.5L343.709 119L299.246 135.5L262.777 158.5L208.823 166L152.87 158.5L123.895 125L113.404 103.5L90.4233 90Z" stroke="white" stroke-width="5"/>
</svg>
