<svg width="3488" height="351" viewBox="0 0 3488 351" fill="none" xmlns="http://www.w3.org/2000/svg">
<path d="M3485 109L3400 147L3355 164.5L3273.5 172H3224L3182.5 198L3159 209.5L3145 231L3122.5 248.5L3104.5 264L3084.5 297L3062 315H3000.5L2956 297L2927.5 290L2904 303L2895.5 315L2846 322H2798.5L2756 284L2713.5 248.5C2700.17 245 2672.8 236.6 2670 231C2667.2 225.4 2656.17 189.333 2651 172L2525.5 83L2463 58.5L2274 3L2201 23L2102.5 66.5L2062.5 99.5L2022.5 148L1996.5 209.5L1929 200L1912.5 209.5L1899.5 221.5L1850 231L1830 259L1773 284L1734 266.5L1653.5 231L1496.5 221.5L1454 250L1423.5 276L1379.5 187L1303 75L1280.5 86.5L1259 108L1241.5 134L1215.5 147L1171.5 154H1129L1102 167L1088 187L1063 221.5L1052.5 240.5H1026.5L1004 221.5L985 179L950.5 115L881 92.5L812.5 66.5L776 86.5L766.5 92.5L757 122L744 134L689.5 179L669.5 221.5V247.5L653 311L669.5 341L605.5 348L669.5 154L615 86.5L581 92.5L567 98.5L543 115L502 134L432 154L307 167L223 205L197 247.5L164 261.5L152 290L123.5 317H67L2 348H3485V109Z" stroke="white" stroke-width="5"/>
</svg>
