<svg width="2173" height="357" viewBox="0 0 2173 357" fill="none" xmlns="http://www.w3.org/2000/svg">
<path d="M197.5 213L119 227.5L92.5 165L53 132.5L42.5 72.5L1 2V356.5H2170.5L2033 267.5L1979 239L1916.5 231H1897L1838.5 250.5L1744.5 289.5L1606.5 231L1520 239L1428.5 267.5L1378 250.5H1321L1086 289.5L1047.5 267.5L1013 239L892 193.5H723L670 168L614 213L572 193.5L529.5 213L495 227.5L448 213L400 199.5L320.5 193.5L270 227.5L197.5 213Z" fill="#3A1B1D"/>
<path d="M33.5 76L2 19.5V2L42.5 71.5L52 132.5L91.5 165L119 228L105 226L83.5 220.5L62 211L56.5 179L33.5 145.5V123L32 117L33.5 76Z" fill="#23171A"/>
<path d="M208.5 222.5L197.5 213.5L269.357 227.525L231 229L208.5 222.5Z" fill="#23171A"/>
<path d="M373 213.5L320.5 195L400 199.5L494.5 228.5L436 226.5L418 217.5L396.5 216L373 213.5Z" fill="#23171A"/>
<path d="M586.5 210.5L571.5 194L613.5 213.5L586.5 210.5Z" fill="#23171A"/>
<path d="M692 194L670 167.5L723 193L891.5 194L778.5 209L719.5 196.5L692 194Z" fill="#23171A"/>
<path d="M270 227.5L197.5 213L119 227.5L92.5 165L53 132.5L42.5 72.5L1 2V356.5H2170.5L2033 267.5L1979 239L1916.5 231H1897L1838.5 250.5L1744.5 289.5L1606.5 231L1520 239L1428.5 267.5L1378 250.5H1321L1086 289.5L1047.5 267.5L1013 239L892 193.5H723L670 168L614 213L572 193.5L529.5 213L495 227.5L448 213L400 199.5M270 227.5L320.5 193.5L400 199.5M270 227.5L269.357 227.525M400 199.5L494.5 228.5L436 226.5L418 217.5L396.5 216L373 213.5L320.5 195L400 199.5ZM269.357 227.525L231 229L208.5 222.5L197.5 213.5L269.357 227.525ZM2 19.5L33.5 76L32 117L33.5 123V145.5L56.5 179L62 211L83.5 220.5L105 226L119 228L91.5 165L52 132.5L42.5 71.5L2 2V19.5ZM571.5 194L586.5 210.5L613.5 213.5L571.5 194ZM670 167.5L692 194L719.5 196.5L778.5 209L891.5 194L723 193L670 167.5Z" stroke="#23171A"/>
</svg>
